# xmcd
#
# Track frame offsets:
#	150
#	17375
#	34452
#	50152
#	62955
#	74020
#	95142
#	111600
#	125270
#	146390
#	159270
#	179220
#	194417
#	207910
#
# Disc length: 2986
#
# Revision: 1
# Processed by: cddbd v1.5.1PL0 Copyright (c) Steve Scherf et al.
# Submitted via: VisiTrax 2.9.3.171 - For more info visit www.synapsa.com
# Normalized: r0:DSETVAR1
#
DISCID=df0ba80e
DTITLE=Various Artist - Mr Music Country 8-01
DYEAR=1900
DGENRE=
TTITLE0=Travis Tritt - Never Get Away From Me (For Waylon and Jessi)
TTITLE1=BR5-49 - Too Lazy To Work, Too Nervous To Steal
TTITLE2=Tammy Cochran - If You Can
TTITLE3=Charlie Rich - I've Got Mine
TTITLE4=Teri Joyce - It Can't Be True
TTITLE5=Merle Haggard with Roger Miller - I Won't Give Up  My Train
TTITLE6=John Anderson - Appalachian Blue
TTITLE7=Rodney Crowell - Lies Don't Lie
TTITLE8=Kevin Deal - The Day Blues Cried
TTITLE9=Vicki Adams and Delta Delivery - Boudreaux
TTITLE10=Willie Nelson - Scarlet Ribbons
TTITLE11=Kris Kristofferson - The Junkie And The Juicehead Minus Me
TTITLE12=Ricochet - Why You Been Gone So Long
TTITLE13=Waylon Jennings and Jessi Colter - Storms Never Last
EXTD=
EXTT0=
EXTT1=
EXTT2=
EXTT3=
EXTT4=
EXTT5=
EXTT6=
EXTT7=
EXTT8=
EXTT9=
EXTT10=
EXTT11=
EXTT12=
EXTT13=
PLAYORDER=
